<?xml version="1.0" encoding="UTF-8"?><svg id="Calque_1" xmlns="http://www.w3.org/2000/svg" viewBox="0 0 24 24"><defs><style>.cls-1{fill:#f26e20;}.cls-2{fill:#fff;}</style></defs><rect class="cls-1" x="0" width="24" height="24"/><g><path class="cls-2" d="M4.44,11.53s-.03-.07-.07-.07-.06,.03-.07,.07l-.16,1.47,.16,1.44s.03,.07,.07,.07,.06-.03,.07-.07l.18-1.44-.18-1.47Z"/><path class="cls-2" d="M6.98,10.17c-.07,0-.12,.05-.12,.12l-.13,2.71,.13,1.75c0,.07,.06,.12,.12,.12s.12-.05,.12-.12h0l.15-1.75-.15-2.71c0-.07-.06-.12-.12-.12Z"/><path class="cls-2" d="M5.67,11.11c-.05,0-.09,.04-.1,.09l-.14,1.8,.14,1.74c0,.05,.05,.09,.1,.09s.09-.04,.1-.09l.16-1.74-.16-1.8c0-.05-.05-.09-.1-.09Z"/><path class="cls-2" d="M8.32,14.88c.08,0,.15-.07,.15-.15l.13-1.72-.13-3.61c0-.08-.07-.15-.15-.15s-.15,.07-.15,.15l-.11,3.61,.11,1.72c0,.08,.07,.15,.15,.15Z"/><path class="cls-2" d="M11.06,14.89c.11,0,.21-.09,.21-.21h0l.09-1.67-.09-4.17c0-.11-.1-.21-.21-.21s-.21,.09-.21,.21l-.08,4.17,.08,1.68c0,.11,.1,.21,.21,.21Z"/><path class="cls-2" d="M9.68,14.88c.1,0,.18-.08,.18-.18h0l.11-1.7-.11-3.64c0-.1-.08-.18-.18-.18s-.18,.08-.18,.18l-.1,3.64,.1,1.7c0,.1,.08,.18,.18,.18Z"/><path class="cls-2" d="M17.98,10.85c-.28,0-.54,.06-.78,.16-.16-1.82-1.69-3.25-3.55-3.25-.46,0-.9,.09-1.29,.24-.15,.06-.19,.12-.19,.24v6.41c0,.12,.1,.23,.22,.24,0,0,5.56,0,5.6,0,1.12,0,2.02-.9,2.02-2.02s-.9-2.02-2.02-2.02Z"/></g></svg>