<?xml version="1.0" encoding="UTF-8"?><svg id="Calque_1" xmlns="http://www.w3.org/2000/svg" viewBox="0 0 24 24"><defs><style>.cls-1{fill:#fff;}.cls-2{fill:#25a1dd;}</style></defs><rect class="cls-2" width="24" height="24"/><path class="cls-1" d="M17.99,8.84c-.08,1.32-.99,3.05-2.72,5.28-1.82,2.31-3.3,3.47-4.54,3.47-.74,0-1.4-.74-1.98-2.15-.66-1.98-1.16-6.03-2.31-6.03-.08,0-.41,.25-.99,.66l-.66-.83c.66-.58,2.89-2.81,3.88-2.89,.99-.08,1.65,.58,1.9,2.06,.25,1.65,.66,5.04,1.49,5.04,.74,0,2.06-2.81,2.15-3.3,.08-.74-.25-1.57-1.9-.91,.66-2.15,1.9-3.14,3.72-3.14,1.4,.08,2.06,.99,1.98,2.72Z"/></svg>