<?xml version="1.0" encoding="UTF-8"?><svg id="Calque_1" xmlns="http://www.w3.org/2000/svg" viewBox="0 0 24 24"><defs><style>.cls-1{fill:#1ed75f;}.cls-2{fill:#191515;}</style></defs><rect class="cls-1" x="0" width="24" height="24"/><path class="cls-2" d="M16.36,16.3c-.19,.29-.53,.39-.83,.19-2.28-1.41-5.15-1.7-8.55-.92-.34,.1-.63-.15-.73-.44-.1-.34,.15-.63,.44-.73,3.69-.83,6.9-.49,9.42,1.07,.34,.15,.39,.53,.24,.83Zm1.17-2.67c-.24,.34-.68,.49-1.02,.24-2.62-1.6-6.61-2.09-9.67-1.12-.39,.1-.83-.1-.92-.49-.1-.39,.1-.83,.49-.92,3.55-1.07,7.92-.53,10.93,1.31,.29,.15,.44,.63,.19,.97Zm.1-2.72c-3.11-1.85-8.31-2.04-11.27-1.12-.49,.15-.97-.15-1.12-.58-.15-.49,.15-.97,.58-1.12,3.45-1.02,9.13-.83,12.73,1.31,.44,.24,.58,.83,.34,1.26-.24,.34-.83,.49-1.26,.24Z"/></svg>