<?xml version="1.0" encoding="UTF-8"?><svg id="Calque_1" xmlns="http://www.w3.org/2000/svg" xmlns:xlink="http://www.w3.org/1999/xlink" viewBox="0 0 24 24"><defs><style>.cls-1{fill:#fff;}.cls-2{fill:url(#Dégradé_sans_nom_3);}</style><radialGradient id="Dégradé_sans_nom_3" cx="-265.25" cy="986.76" fx="-265.25" fy="986.76" r="12" gradientTransform="translate(-1813.25 -500.1) rotate(-90) scale(1.98 1.84)" gradientUnits="userSpaceOnUse"><stop offset="0" stop-color="#fd5"/><stop offset=".1" stop-color="#fd5"/><stop offset=".5" stop-color="#ff543e"/><stop offset="1" stop-color="#c837ab"/></radialGradient></defs><path class="cls-2" d="M0,0V24H11.98c-3.03,0,6.02,0,6.02,0h6V0h-5c-1,0-.22,0-3.09,0h-3.9C6.99,0,5,0,5,0"/><path class="cls-1" d="M12.3,4.3c-2.09,0-2.35,0-3.17,.05-.64,.01-1.27,.13-1.87,.36-1.03,.4-1.85,1.22-2.25,2.25-.22,.6-.35,1.23-.36,1.87-.04,.82-.05,1.08-.05,3.18s0,2.35,.05,3.17c.01,.64,.13,1.27,.36,1.87,.4,1.03,1.22,1.85,2.25,2.25,.6,.22,1.23,.34,1.87,.36,.82,.04,1.08,.05,3.17,.05s2.35,0,3.17-.05c.64-.01,1.27-.13,1.87-.36,1.03-.4,1.85-1.22,2.25-2.25,.22-.6,.34-1.23,.36-1.87,.04-.82,.05-1.08,.05-3.17s0-2.35-.05-3.18c-.01-.64-.14-1.27-.36-1.87-.4-1.03-1.22-1.85-2.25-2.25-.6-.22-1.23-.35-1.87-.36-.82-.04-1.08-.05-3.17-.05h0Zm-.69,1.39h.69c2.06,0,2.3,0,3.11,.04,.49,0,.97,.1,1.43,.27,.67,.26,1.2,.79,1.46,1.46,.17,.46,.26,.94,.27,1.43,.04,.81,.05,1.06,.05,3.11s0,2.3-.05,3.11c0,.49-.1,.97-.27,1.43-.26,.67-.79,1.2-1.46,1.46-.46,.17-.94,.26-1.43,.27-.81,.04-1.06,.04-3.11,.04s-2.3,0-3.11-.04c-.49,0-.97-.1-1.43-.27-.67-.26-1.2-.79-1.46-1.46-.17-.46-.26-.94-.27-1.43-.04-.81-.04-1.06-.04-3.11s0-2.3,.04-3.11c0-.49,.1-.97,.27-1.43,.26-.67,.79-1.2,1.46-1.46,.46-.17,.94-.26,1.43-.27,.71-.03,.99-.04,2.42-.04h0Zm4.8,1.28c-.51,0-.92,.41-.92,.92s.41,.92,.92,.92,.92-.41,.92-.92h0c0-.51-.41-.92-.92-.92h0Zm-4.11,1.08c-2.18,0-3.96,1.77-3.96,3.95,0,2.18,1.77,3.96,3.95,3.96,2.18,0,3.96-1.77,3.96-3.95h0c0-2.19-1.77-3.96-3.95-3.96Zm0,1.39c1.42,0,2.57,1.15,2.57,2.57,0,1.42-1.15,2.57-2.57,2.57s-2.57-1.15-2.57-2.57h0c0-1.42,1.15-2.57,2.57-2.57h0Z"/></svg>